<?xml version="1.0" encoding="UTF-8" standalone="no"?>
<!DOCTYPE svg PUBLIC "-//W3C//DTD SVG 1.1//EN" "http://www.w3.org/Graphics/SVG/1.1/DTD/svg11.dtd">
<svg xmlns="http://www.w3.org/2000/svg" xmlns:xlink="http://www.w3.org/1999/xlink" version="1.1" width="237.99999pt" height="264.00004pt" viewBox="0 0 237.99999 264.00004">
<g enable-background="new">
<clipPath id="cp0">
<path transform="matrix(-2.7777777,0,0,2.7777777,609.6203,-43.16546)" d="M 134.9017 79.20237 L 150.0816 79.20237 L 150.0816 109.1372 L 134.9017 109.1372 Z "/>
</clipPath>
<g clip-path="url(#cp0)">
<path transform="matrix(-2.7777777,0,0,2.7777777,609.6203,-43.16546)" d="M 135.1517 79.45237 L 149.83159 79.45237 L 149.83159 108.8872 L 135.1517 108.8872 Z " fill="#c8c8c8"/>
<path transform="matrix(-2.7777777,0,0,2.7777777,609.6203,-43.16546)" stroke-width=".25" stroke-linecap="butt" stroke-miterlimit="10" stroke-linejoin="miter" fill="none" stroke="#000000" d="M 135.1517 79.45237 L 149.83159 79.45237 L 149.83159 108.8872 L 135.1517 108.8872 Z "/>
</g>
<clipPath id="cp1">
<path transform="matrix(2.7777777,0,0,-2.7777777,-181.99999,480)" d="M 61.3232 73.53402 L 155.468 73.53402 L 155.468 177.1029 L 61.3232 177.1029 Z "/>
</clipPath>
<g clip-path="url(#cp1)">
<path transform="matrix(2.7777777,0,0,-2.7777777,-181.99999,480)" stroke-width="1" stroke-linecap="butt" stroke-miterlimit="10" stroke-linejoin="miter" fill="none" stroke="#000000" d="M 95.94059 148.1871 L 66.86536 148.2832 L 66.8232 79.29431 L 149.968 79.03402 L 149.968 171.5898 L 95.98864 171.6029 Z "/>
</g>
<clipPath id="cp2">
<path transform="matrix(2.7777777,0,0,-2.7777777,-181.99999,480)" d="M 60.83642 142.7705 L 101.5008 142.7705 L 101.5008 176.9663 L 60.83642 176.9663 Z "/>
</clipPath>
<g clip-path="url(#cp2)">
<path transform="matrix(2.7777777,0,0,-2.7777777,-181.99999,480)" stroke-width="1" stroke-linecap="butt" stroke-miterlimit="10" stroke-linejoin="miter" fill="none" stroke="#000000" d="M 66.33642 148.2705 L 96.00085 148.2705 L 96.00085 171.4663 "/>
</g>
<clipPath id="cp3">
<path transform="matrix(2.7777777,0,0,-2.7777777,-181.99999,480)" d="M 61.34962 73.67554 L 155.4356 73.67554 L 155.4356 153.6934 L 61.34962 153.6934 Z "/>
</clipPath>
<g clip-path="url(#cp3)">
<path transform="matrix(2.7777777,0,0,-2.7777777,-181.99999,480)" stroke-width="1" stroke-linecap="butt" stroke-miterlimit="10" stroke-linejoin="miter" fill="none" stroke="#000000" d="M 149.9356 79.17554 L 66.84962 79.17554 L 66.84962 148.1934 "/>
</g>
<clipPath id="cp4">
<path transform="matrix(0,2.7777777,2.7777777,0,-396.31068,-105.71047)" d="M 56.93148 132.995 L 76.77248 132.995 L 76.77248 155.0127 L 56.93148 155.0127 Z "/>
</clipPath>
<g clip-path="url(#cp4)">
<path transform="matrix(0,2.7777777,2.7777777,0,-396.31068,-105.71047)" stroke-width=".25" stroke-linecap="butt" stroke-miterlimit="10" stroke-linejoin="miter" fill="none" stroke="#000000" d="M 76.52234 143.947 C 76.52908 145.3646 76.28391 146.7698 75.80096 148.0816 C 75.318 149.3935 74.60673 150.5863 73.7081 151.5914 C 72.80948 152.5964 71.7411 153.394 70.56452 153.9383 C 69.38794 154.4825 68.1262 154.7627 66.85197 154.7627 "/>
</g>
<clipPath id="cp5">
<path transform="matrix(2.7777777,0,0,-2.7777777,-181.99999,480)" d="M 62.28344 135.1422 L 81.27654 135.1422 L 81.27654 148.8145 L 62.28344 148.8145 Z "/>
</clipPath>
<g clip-path="url(#cp5)">
<path transform="matrix(2.7777777,0,0,-2.7777777,-181.99999,480)" stroke-width=".25" stroke-linecap="butt" stroke-miterlimit="10" stroke-linejoin="miter" fill="none" stroke="#000000" d="M 67.03344 144.0645 L 76.52654 139.8922 "/>
</g>
<clipPath id="cp6">
<path transform="matrix(0,-2.7777777,-2.7777777,-0,349.48228,320.02827)" d="M 56.95138 113.4529 L 76.79238 113.4529 L 76.79238 135.4706 L 56.95138 135.4706 Z "/>
</clipPath>
<g clip-path="url(#cp6)">
<path transform="matrix(0,-2.7777777,-2.7777777,-0,349.48228,320.02827)" stroke-width=".25" stroke-linecap="butt" stroke-miterlimit="10" stroke-linejoin="miter" fill="none" stroke="#000000" d="M 66.87188 113.7029 C 68.1461 113.7029 69.40784 113.9831 70.58443 114.5273 C 71.76101 115.0715 72.82938 115.8692 73.72801 116.8742 C 74.62663 117.8793 75.33791 119.0721 75.82086 120.384 C 76.30381 121.6958 76.54898 123.101 76.54224 124.5186 "/>
</g>
<clipPath id="cp7">
<path transform="matrix(2.7777777,0,0,-2.7777777,-181.99999,480)" d="M 61.94024 119.6514 L 81.29644 119.6514 L 81.29644 133.3238 L 61.94024 133.3238 Z "/>
</clipPath>
<g clip-path="url(#cp7)">
<path transform="matrix(2.7777777,0,0,-2.7777777,-181.99999,480)" stroke-width=".25" stroke-linecap="butt" stroke-miterlimit="10" stroke-linejoin="miter" fill="none" stroke="#000000" d="M 76.54644 128.5738 L 66.69024 124.4014 "/>
</g>
<clipPath id="cp8">
<path transform="matrix(2.7777777,0,0,-2.7777777,-181.99999,480)" d="M 85.89776 73.66013 L 155.4544 73.66013 L 155.4544 114.6265 L 85.89776 114.6265 Z "/>
</clipPath>
<g clip-path="url(#cp8)">
<path transform="matrix(2.7777777,0,0,-2.7777777,-181.99999,480)" stroke-width="1" stroke-linecap="butt" stroke-miterlimit="10" stroke-linejoin="miter" fill="none" stroke="#000000" d="M 91.39776 109.1265 L 149.9544 109.1265 L 93.07995 109.1265 L 93.07995 79.16013 "/>
</g>
<clipPath id="cp9">
<path transform="matrix(2.7777777,0,0,-2.7777777,-181.99999,480)" d="M 85.58535 97.87083 L 105.4264 97.87083 L 105.4264 119.8885 L 85.58535 119.8885 Z "/>
</clipPath>
<g clip-path="url(#cp9)">
<path transform="matrix(2.7777777,0,0,-2.7777777,-181.99999,480)" stroke-width=".25" stroke-linecap="butt" stroke-miterlimit="10" stroke-linejoin="miter" fill="none" stroke="#000000" d="M 95.50587 98.12083 C 96.7801 98.12083 98.04185 98.40102 99.21843 98.94524 C 100.395 99.48948 101.4634 100.2871 102.362 101.2922 C 103.2607 102.2972 103.9719 103.49 104.4549 104.8019 C 104.9378 106.1137 105.183 107.5189 105.1763 108.9365 "/>
</g>
<clipPath id="cp10">
<path transform="matrix(2.7777777,0,0,-2.7777777,-181.99999,480)" d="M 90.69534 94.45515 L 104.3677 94.45515 L 104.3677 113.8113 L 90.69534 113.8113 Z "/>
</clipPath>
<g clip-path="url(#cp10)">
<path transform="matrix(2.7777777,0,0,-2.7777777,-181.99999,480)" stroke-width=".25" stroke-linecap="butt" stroke-miterlimit="10" stroke-linejoin="miter" fill="none" stroke="#000000" d="M 99.61773 99.20515 L 95.44534 109.0613 "/>
</g>
<clipPath id="cp11">
<path transform="matrix(2.7777777,0,0,-2.7777777,-181.99999,480)" d="M 109.4728 138.0468 L 135.3218 138.0468 L 135.3218 171.342 L 109.4728 171.342 Z "/>
</clipPath>
<g clip-path="url(#cp11)">
<path transform="matrix(2.7777777,0,0,-2.7777777,-181.99999,480)" d="M 109.7228 138.2968 L 135.07181 138.2968 L 135.07181 171.09201 L 109.7228 171.09201 Z " fill="#969696"/>
<path transform="matrix(2.7777777,0,0,-2.7777777,-181.99999,480)" stroke-width=".25" stroke-linecap="butt" stroke-miterlimit="10" stroke-linejoin="miter" fill="none" stroke="#000000" d="M 109.7228 138.2968 L 135.07181 138.2968 L 135.07181 171.09201 L 109.7228 171.09201 Z "/>
</g>
<clipPath id="cp12">
<path transform="matrix(2.7777777,0,0,-2.7777777,-181.99999,480)" d="M 122.7707 164.5405 L 133.3218 164.5405 L 133.3218 170.0512 L 122.7707 170.0512 Z "/>
</clipPath>
<g clip-path="url(#cp12)">
<path transform="matrix(2.7777777,0,0,-2.7777777,-181.99999,480)" d="M 123.0207 164.7905 L 133.0718 164.7905 L 133.0718 169.8012 L 123.0207 169.8012 Z " fill="#969696"/>
<path transform="matrix(2.7777777,0,0,-2.7777777,-181.99999,480)" stroke-width=".25" stroke-linecap="butt" stroke-miterlimit="10" stroke-linejoin="miter" fill="none" stroke="#000000" d="M 123.0207 164.7905 L 133.0718 164.7905 L 133.0718 169.8012 L 123.0207 169.8012 Z "/>
</g>
<clipPath id="cp13">
<path transform="matrix(2.7777777,0,0,-2.7777777,-181.99999,480)" d="M 111.4728 164.5405 L 122.0239 164.5405 L 122.0239 170.0512 L 111.4728 170.0512 Z "/>
</clipPath>
<g clip-path="url(#cp13)">
<path transform="matrix(2.7777777,0,0,-2.7777777,-181.99999,480)" d="M 111.7228 164.7905 L 121.7739 164.7905 L 121.7739 169.8012 L 111.7228 169.8012 Z " fill="#969696"/>
<path transform="matrix(2.7777777,0,0,-2.7777777,-181.99999,480)" stroke-width=".25" stroke-linecap="butt" stroke-miterlimit="10" stroke-linejoin="miter" fill="none" stroke="#000000" d="M 111.7228 164.7905 L 121.7739 164.7905 L 121.7739 169.8012 L 111.7228 169.8012 Z "/>
</g>
<clipPath id="cp14">
<path transform="matrix(2.7777777,0,0,-2.7777777,-181.99999,480)" d="M 98.59782 165.2805 L 108.5122 165.2805 L 108.5122 170.8551 L 98.59782 170.8551 Z "/>
</clipPath>
<g clip-path="url(#cp14)">
<path transform="matrix(2.7777777,0,0,-2.7777777,-181.99999,480)" d="M 98.59782 165.2805 L 108.5122 165.2805 L 108.5122 170.8551 L 98.59782 170.8551 Z " fill="#804000" fill-opacity=".7"/>
</g>
<clipPath id="cp15">
<path transform="matrix(2.7777777,0,0,-2.7777777,-181.99999,480)" d="M 136.2824 165.2805 L 146.1968 165.2805 L 146.1968 170.8551 L 136.2824 170.8551 Z "/>
</clipPath>
<g clip-path="url(#cp15)">
<path transform="matrix(2.7777777,0,0,-2.7777777,-181.99999,480)" d="M 136.2824 165.2805 L 146.1968 165.2805 L 146.1968 170.8551 L 136.2824 170.8551 Z " fill="#804000" fill-opacity=".7"/>
</g>
<clipPath id="cp16">
<path transform="matrix(2.7777777,0,0,-2.7777777,-181.99999,480)" d="M 107.9943 109.814 L 149.1487 109.814 L 149.1487 116.9248 L 107.9943 116.9248 Z "/>
</clipPath>
<g clip-path="url(#cp16)">
<path transform="matrix(2.7777777,0,0,-2.7777777,-181.99999,480)" d="M 107.9943 109.814 L 149.1487 109.814 L 149.1487 116.9248 L 107.9943 116.9248 Z " fill="#804000" fill-opacity=".7"/>
</g>
<clipPath id="cp17">
<path transform="matrix(2.7777777,0,0,-2.7777777,-181.99999,480)" d="M 67.46026 79.79453 L 92.46404 79.79453 L 92.46404 88.73353 L 67.46026 88.73353 Z "/>
</clipPath>
<g clip-path="url(#cp17)">
<path transform="matrix(2.7777777,0,0,-2.7777777,-181.99999,480)" d="M 67.46026 79.79453 L 92.464038 79.79453 L 92.464038 88.733539 L 67.46026 88.733539 Z " fill="#804000" fill-opacity=".7"/>
</g>
<clipPath id="cp18">
<path transform="matrix(2.7777777,0,0,-2.7777777,-181.99999,480)" d="M 67.42332 99.21793 L 75.35946 99.21793 L 75.35946 108.4928 L 67.42332 108.4928 Z "/>
</clipPath>
<g clip-path="url(#cp18)">
<path transform="matrix(2.7777777,0,0,-2.7777777,-181.99999,480)" d="M 67.42332 99.21793 L 75.35946 99.21793 L 75.35946 108.492809 L 67.42332 108.492809 Z " fill="#804000" fill-opacity=".7"/>
</g>
<clipPath id="cp19">
<path transform="matrix(0,-2.7777777,-2.7777777,-0,415.9248,605.31997)" d="M 127.0553 82.32751 L 133.3128 82.32751 L 133.3128 87.81025 L 127.0553 87.81025 Z "/>
</clipPath>
<g clip-path="url(#cp19)">
<path transform="matrix(0,-2.7777777,-2.7777777,-0,415.9248,605.31997)" d="M 130.1841 82.57751 C 131.7739 82.57751 133.0628 83.69293 133.0628 85.06888 C 133.0628 86.44482 131.7739 87.56025 130.1841 87.56025 C 128.5942 87.56025 127.3053 86.44482 127.3053 85.06888 C 127.3053 83.69293 128.5942 82.57751 130.1841 82.57751 Z " fill="#c8c8c8"/>
<path transform="matrix(0,-2.7777777,-2.7777777,-0,415.9248,605.31997)" stroke-width=".25" stroke-linecap="butt" stroke-miterlimit="10" stroke-linejoin="miter" fill="none" stroke="#000000" d="M 130.1841 82.57751 C 131.7739 82.57751 133.0628 83.69293 133.0628 85.06888 C 133.0628 86.44482 131.7739 87.56025 130.1841 87.56025 C 128.5942 87.56025 127.3053 86.44482 127.3053 85.06888 C 127.3053 83.69293 128.5942 82.57751 130.1841 82.57751 Z "/>
</g>
<clipPath id="cp20">
<path transform="matrix(2.7777777,0,0,-2.7777777,-181.99999,480)" d="M 127.4102 79.85777 L 132.9456 79.85777 L 132.9456 82.84025 L 127.4102 82.84025 Z "/>
</clipPath>
<g clip-path="url(#cp20)">
<path transform="matrix(2.7777777,0,0,-2.7777777,-181.99999,480)" d="M 127.6602 80.10777 L 132.69562 80.10777 L 132.69562 82.590259 L 127.6602 82.590259 Z " fill="#c8c8c8"/>
<path transform="matrix(2.7777777,0,0,-2.7777777,-181.99999,480)" stroke-width=".25" stroke-linecap="butt" stroke-miterlimit="10" stroke-linejoin="miter" fill="none" stroke="#000000" d="M 127.6602 80.10777 L 132.69562 80.10777 L 132.69562 82.590259 L 127.6602 82.590259 Z "/>
</g>
<clipPath id="cp21">
<path transform="matrix(2.7777777,0,0,-2.7777777,-181.99999,480)" d="M 137.2415 100.7395 L 147.7415 100.7395 L 147.7415 114.1163 L 137.2415 114.1163 Z "/>
</clipPath>
<g clip-path="url(#cp21)">
<path transform="matrix(2.7777777,0,0,-2.7777777,-181.99999,480)" stroke-width=".75" stroke-linecap="butt" stroke-miterlimit="10" stroke-linejoin="miter" fill="none" stroke="#000000" d="M 142.4915 108.8663 L 142.4915 105.9895 "/>
</g>
<clipPath id="cp22">
<path transform="matrix(2.7777777,0,0,-2.7777777,-181.99999,480)" d="M 130.3902 80.65043 L 154.5868 80.65043 L 154.5868 90.15043 L 130.3902 90.15043 Z "/>
</clipPath>
<g clip-path="url(#cp22)">
<path transform="matrix(2.7777777,0,0,-2.7777777,-181.99999,480)" stroke-width=".25" stroke-linecap="butt" stroke-miterlimit="10" stroke-linejoin="miter" fill="none" stroke="#000000" d="M 135.1402 85.40043 L 149.8368 85.40043 "/>
</g>
<clipPath id="cp23">
<path transform="matrix(-2.7777777,0,0,2.7777777,377.59458,13.736618)" d="M 96.94155 81.87574 L 104.5125 81.87574 L 104.5125 85.9791 L 96.94155 85.9791 Z "/>
</clipPath>
<g clip-path="url(#cp23)">
<path transform="matrix(-2.7777777,0,0,2.7777777,377.59458,13.736618)" d="M 100.727 82.12574 C 102.6796 82.12574 104.2625 82.93237 104.2625 83.92741 C 104.2625 84.92245 102.6796 85.7291 100.727 85.7291 C 98.77443 85.7291 97.19155 84.92245 97.19155 83.92741 C 97.19155 82.93237 98.77443 82.12574 100.727 82.12574 Z " fill="#c8c8c8"/>
<path transform="matrix(-2.7777777,0,0,2.7777777,377.59458,13.736618)" stroke-width=".25" stroke-linecap="butt" stroke-miterlimit="10" stroke-linejoin="miter" fill="none" stroke="#000000" d="M 100.727 82.12574 C 102.6796 82.12574 104.2625 82.93237 104.2625 83.92741 C 104.2625 84.92245 102.6796 85.7291 100.727 85.7291 C 98.77443 85.7291 97.19155 84.92245 97.19155 83.92741 C 97.19155 82.93237 98.77443 82.12574 100.727 82.12574 Z "/>
</g>
<clipPath id="cp24">
<path transform="matrix(2.7777777,0,0,-2.7777777,-181.99999,480)" d="M 95.47701 76.18623 L 105.977 76.18623 L 105.977 89.06434 L 95.47701 89.06434 Z "/>
</clipPath>
<g clip-path="url(#cp24)">
<path transform="matrix(2.7777777,0,0,-2.7777777,-181.99999,480)" stroke-width=".75" stroke-linecap="butt" stroke-miterlimit="10" stroke-linejoin="miter" fill="none" stroke="#000000" d="M 100.727 81.43623 L 100.727 83.81434 "/>
</g>
<clipPath id="cp25">
<path transform="matrix(2.7777777,0,0,-2.7777777,-181.99999,480)" d="M 88.36886 74.63215 L 130.0998 74.63215 L 130.0998 92.70383 L 88.36886 92.70383 Z "/>
</clipPath>
<g clip-path="url(#cp25)">
<path transform="matrix(2.7777777,0,0,-2.7777777,-181.99999,480)" stroke-width=".25" stroke-linecap="butt" stroke-miterlimit="10" stroke-linejoin="miter" fill="none" stroke="#000000" d="M 93.11886 87.95383 L 125.3498 87.95383 L 125.3498 79.38215 "/>
</g>
<clipPath id="cp26">
<path transform="matrix(-2.7777777,0,0,2.7777777,474.17945,13.736618)" d="M 114.3267 81.87574 L 121.8979 81.87574 L 121.8979 85.9791 L 114.3267 85.9791 Z "/>
</clipPath>
<g clip-path="url(#cp26)">
<path transform="matrix(-2.7777777,0,0,2.7777777,474.17945,13.736618)" d="M 118.1123 82.12574 C 120.065 82.12574 121.6479 82.93237 121.6479 83.92741 C 121.6479 84.92245 120.065 85.7291 118.1123 85.7291 C 116.1596 85.7291 114.5767 84.92245 114.5767 83.92741 C 114.5767 82.93237 116.1596 82.12574 118.1123 82.12574 Z " fill="#c8c8c8"/>
<path transform="matrix(-2.7777777,0,0,2.7777777,474.17945,13.736618)" stroke-width=".25" stroke-linecap="butt" stroke-miterlimit="10" stroke-linejoin="miter" fill="none" stroke="#000000" d="M 118.1123 82.12574 C 120.065 82.12574 121.6479 82.93237 121.6479 83.92741 C 121.6479 84.92245 120.065 85.7291 118.1123 85.7291 C 116.1596 85.7291 114.5767 84.92245 114.5767 83.92741 C 114.5767 82.93237 116.1596 82.12574 118.1123 82.12574 Z "/>
</g>
<clipPath id="cp27">
<path transform="matrix(2.7777777,0,0,-2.7777777,-181.99999,480)" d="M 112.8624 76.18613 L 123.3624 76.18613 L 123.3624 89.06434 L 112.8624 89.06434 Z "/>
</clipPath>
<g clip-path="url(#cp27)">
<path transform="matrix(2.7777777,0,0,-2.7777777,-181.99999,480)" stroke-width=".75" stroke-linecap="butt" stroke-miterlimit="10" stroke-linejoin="miter" fill="none" stroke="#000000" d="M 118.1124 81.43613 L 118.1124 83.81434 "/>
</g>
<clipPath id="cp28">
<path transform="matrix(2.7777777,0,0,-2.7777777,-181.99999,480)" d="M 61.30816 103.6265 L 87.63165 103.6265 L 87.63165 114.6265 L 61.30816 114.6265 Z "/>
</clipPath>
<g clip-path="url(#cp28)">
<path transform="matrix(2.7777777,0,0,-2.7777777,-181.99999,480)" stroke-width="1" stroke-linecap="butt" stroke-miterlimit="10" stroke-linejoin="miter" fill="none" stroke="#000000" d="M 66.80816 109.1265 L 82.13165 109.1265 "/>
</g>
<clipPath id="cp29">
<path transform="matrix(2.7777777,0,0,-2.7777777,-181.99999,480)" d="M 86.97775 123.5879 L 134.9818 123.5879 L 134.9818 135.5879 L 86.97775 135.5879 Z "/>
</clipPath>
<g clip-path="url(#cp29)">
<symbol id="font_1e_23">
<path d="M 0 0 L .32900004 0 C .39800004 0 .449 .019000002 .48800005 .061000006 C .52400007 .09900001 .544 .15100001 .544 .208 C .544 .296 .504 .349 .411 .38500003 C .47800005 .416 .512 .469 .512 .544 C .512 .59800007 .49200005 .64400008 .45400007 .67800006 C .41500003 .71300008 .36600004 .72900006 .29600004 .72900006 L 0 .72900006 L 0 0 M .093 .41500003 L .093 .647 L .27300004 .647 C .32500003 .647 .35400004 .64000007 .37900005 .62100008 C .40500004 .601 .41900004 .57100006 .41900004 .531 C .41900004 .49100004 .40500004 .46100004 .37900005 .441 C .35400004 .42200003 .32500003 .41500003 .27300004 .41500003 L .093 .41500003 M .093 .082 L .093 .333 L .32000003 .333 C .40200005 .333 .45100004 .286 .45100004 .20700002 C .45100004 .12900001 .40200005 .082 .32000003 .082 L .093 .082 Z "/>
</symbol>
<symbol id="font_1e_26">
<path d="M .09300001 .33200003 L .49000005 .33200003 L .49000005 .41400004 L .09300001 .41400004 L .09300001 .647 L .505 .647 L .505 .72900006 L 0 .72900006 L 0 0 L .523 0 L .523 .082 L .09300001 .082 L .09300001 .33200003 Z "/>
</symbol>
<symbol id="font_1e_25">
<path d="M 0 0 L .28100003 0 C .46500004 0 .57800009 .13800001 .57800009 .365 C .57800009 .591 .46600003 .72900006 .28100003 .72900006 L 0 .72900006 L 0 0 M .09300001 .082 L .09300001 .647 L .265 .647 C .40900005 .647 .485 .55 .485 .36400003 C .485 .179 .40900005 .082 .265 .082 L .09300001 .082 Z "/>
</symbol>
<symbol id="font_1e_33">
<path d="M .093 .314 L .33300004 .314 C .416 .314 .453 .27400003 .453 .18400002 L .45200003 .119 C .45200003 .074 .46000005 .030000002 .47300006 0 L .586 0 L .586 .023000002 C .55100008 .047000003 .544 .07300001 .54200008 .17 C .541 .29000003 .522 .326 .44300003 .36 C .52500006 .40100003 .558 .45000003 .558 .53400006 C .558 .66 .48000003 .72900006 .33600004 .72900006 L 0 .72900006 L 0 0 L .093 0 L .093 .314 M .093 .39600004 L .093 .647 L .31800003 .647 C .37000004 .647 .40000005 .63900008 .42300005 .619 C .448 .59800007 .46100004 .565 .46100004 .522 C .46100004 .43500004 .41700007 .39600004 .31800003 .39600004 L .093 .39600004 Z "/>
</symbol>
<symbol id="font_1e_30">
<path d="M .351 .76400008 C .142 .76400008 0 .61 0 .38200004 C 0 .15300001 .141 0 .352 0 C .44100005 0 .51900008 .027000003 .57800009 .07700001 C .65700009 .14400001 .70400008 .25700004 .70400008 .37600003 C .70400008 .611 .56500008 .76400008 .351 .76400008 M .351 .68200007 C .50900009 .68200007 .61100009 .563 .61100009 .37800003 C .61100009 .202 .50600007 .082 .352 .082 C .19600001 .082 .09300001 .202 .09300001 .38200004 C .09300001 .56200006 .19600001 .68200007 .351 .68200007 Z "/>
</symbol>
<symbol id="font_1e_2e">
<path d="M .393 0 L .59800007 .611 L .59800007 0 L .68600007 0 L .68600007 .72900006 L .55700007 .72900006 L .34500004 .094000007 L .12900001 .72900006 L 0 .72900006 L 0 0 L .088 0 L .088 .611 L .29500003 0 L .393 0 Z "/>
</symbol>
<use xlink:href="#font_1e_23" transform="matrix(11.111111,0,0,-11.111111,98.44945,123.95584)" fill="#646464"/>
<use xlink:href="#font_1e_26" transform="matrix(11.111111,0,0,-11.111111,105.98277,123.95584)" fill="#646464"/>
<use xlink:href="#font_1e_25" transform="matrix(11.111111,0,0,-11.111111,113.38277,123.95584)" fill="#646464"/>
<use xlink:href="#font_1e_33" transform="matrix(11.111111,0,0,-11.111111,121.449428,123.95584)" fill="#646464"/>
<use xlink:href="#font_1e_30" transform="matrix(11.111111,0,0,-11.111111,128.86057,124.211399)" fill="#646464"/>
<use xlink:href="#font_1e_30" transform="matrix(11.111111,0,0,-11.111111,137.505,124.211399)" fill="#646464"/>
<use xlink:href="#font_1e_2e" transform="matrix(11.111111,0,0,-11.111111,146.56055,123.95584)" fill="#646464"/>
</g>
<clipPath id="cp31">
<path transform="matrix(2.7777777,0,0,-2.7777777,-181.99999,480)" d="M 67.90932 87.92146 L 91.91331 87.92146 L 91.91331 99.92146 L 67.90932 99.92146 Z "/>
</clipPath>
<g clip-path="url(#cp31)">
<symbol id="font_1e_24">
<path d="M .6140001 .526 C .58500006 .68600007 .493 .76400008 .333 .76400008 C .23500002 .76400008 .15600002 .73300006 .102000009 .67300006 C .036000007 .601 0 .49700005 0 .379 C 0 .259 .037 .156 .10500001 .08500001 C .162 .027000003 .234 0 .329 0 C .507 0 .60700008 .09600001 .62900009 .289 L .53300008 .289 C .52500006 .23900001 .51500007 .20500002 .50000008 .17600002 C .47 .116000007 .40800003 .082 .33 .082 C .185 .082 .093 .19800002 .093 .38000003 C .093 .56700006 .18 .68200007 .322 .68200007 C .381 .68200007 .43600003 .665 .466 .63600006 C .493 .611 .5080001 .58100005 .51900008 .526 L .6140001 .526 Z "/>
</symbol>
<symbol id="font_1e_2d">
<path d="M .093 .72900006 L 0 .72900006 L 0 0 L .45300005 0 L .45300005 .082 L .093 .082 L .093 .72900006 Z "/>
</symbol>
<symbol id="font_1e_34">
<path d="M .54800006 .53800007 C .54800006 .588 .5450001 .60200008 .52900007 .63600006 C .489 .72 .404 .76400008 .28100003 .76400008 C .121000017 .76400008 .022 .68200007 .022 .55 C .022 .46100004 .069000009 .40500004 .16500002 .38000003 L .34600003 .33200003 C .439 .30800004 .48 .27100004 .48 .21400002 C .48 .17500001 .45900003 .135 .428 .113000009 C .39900003 .09200001 .35300002 .082 .294 .082 C .21400002 .082 .16100002 .101 .12600002 .143 C .099 .17500001 .087000008 .21000001 .08800001 .255 L 0 .255 C .001000002 .18800001 .014000002 .14400001 .043000007 .104 C .093 .035000005 .17700002 0 .28800003 0 C .375 0 .446 .020000002 .493 .056 C .54200008 .095000009 .5730001 .16000001 .5730001 .223 C .5730001 .31300003 .517 .379 .418 .40600003 L .23500002 .455 C .14700002 .47900004 .115 .507 .115 .563 C .115 .637 .18 .68600007 .278 .68600007 C .39400003 .68600007 .45900003 .634 .46 .53800007 L .54800006 .53800007 Z "/>
</symbol>
<symbol id="font_1e_35">
<path d="M .333 .647 L .572 .647 L .572 .72900006 L 0 .72900006 L 0 .647 L .24000001 .647 L .24000001 0 L .333 0 L .333 .647 Z "/>
</symbol>
<use xlink:href="#font_1e_24" transform="matrix(11.111111,0,0,-11.111111,18.281426,223.28485)" fill="#646464"/>
<use xlink:href="#font_1e_2d" transform="matrix(11.111111,0,0,-11.111111,26.659199,223.0293)" fill="#646464"/>
<use xlink:href="#font_1e_30" transform="matrix(11.111111,0,0,-11.111111,32.37031,223.28485)" fill="#646464"/>
<use xlink:href="#font_1e_34" transform="matrix(11.111111,0,0,-11.111111,41.125864,223.28485)" fill="#646464"/>
<use xlink:href="#font_1e_26" transform="matrix(11.111111,0,0,-11.111111,49.00363,223.0293)" fill="#646464"/>
<use xlink:href="#font_1e_35" transform="matrix(11.111111,0,0,-11.111111,55.648084,223.0293)" fill="#646464"/>
</g>
<clipPath id="cp32">
<path transform="matrix(2.7777777,0,0,-2.7777777,-181.99999,480)" d="M 90.23817 92.4043 L 138.2422 92.4043 L 138.2422 104.4043 L 90.23817 104.4043 Z "/>
</clipPath>
<g clip-path="url(#cp32)">
<symbol id="font_1e_22">
<path d="M .45700006 .21900001 L .532 0 L .63600006 0 L .38000003 .72900006 L .26000003 .72900006 L 0 0 L .09900001 0 L .176 .21900001 L .45700006 .21900001 M .43100003 .29700003 L .199 .29700003 L .31900005 .629 L .43100003 .29700003 Z "/>
</symbol>
<symbol id="font_1e_29">
<path d="M .468 .33200003 L .468 0 L .56100007 0 L .56100007 .72900006 L .468 .72900006 L .468 .41400004 L .09300001 .41400004 L .09300001 .72900006 L 0 .72900006 L 0 0 L .09300001 0 L .09300001 .33200003 L .468 .33200003 Z "/>
</symbol>
<use xlink:href="#font_1e_23" transform="matrix(11.111111,0,0,-11.111111,104.11165,210.577)" fill="#646464"/>
<use xlink:href="#font_1e_22" transform="matrix(11.111111,0,0,-11.111111,110.83389,210.577)" fill="#646464"/>
<use xlink:href="#font_1e_35" transform="matrix(11.111111,0,0,-11.111111,118.28944,210.577)" fill="#646464"/>
<use xlink:href="#font_1e_29" transform="matrix(11.111111,0,0,-11.111111,125.76721,210.577)" fill="#646464"/>
<use xlink:href="#font_1e_33" transform="matrix(11.111111,0,0,-11.111111,133.90055,210.577)" fill="#646464"/>
<use xlink:href="#font_1e_30" transform="matrix(11.111111,0,0,-11.111111,141.31168,210.83255)" fill="#646464"/>
<use xlink:href="#font_1e_30" transform="matrix(11.111111,0,0,-11.111111,149.95612,210.83255)" fill="#646464"/>
<use xlink:href="#font_1e_2e" transform="matrix(11.111111,0,0,-11.111111,159.01166,210.577)" fill="#646464"/>
</g>
</g>
</svg>
